<?xml version="1.0" encoding="UTF-8" standalone="yes"?>
<svg xmlns="http://www.w3.org/2000/svg" viewBox="0 0 64 64" width="64" height="64" fill="#2fd4c9">
  <path d="M27.11,12c0.94,0,1.9,0.06,2.83,0.12H30c0.552,0.019,1.016-0.413,1.035-0.965s-0.413-1.016-0.965-1.035 c-1-0.07-2-0.11-2.93-0.12l0,0c-0.552,0-1,0.448-1,1s0.448,1,1,1H27.11z M14.18,13.3c0.08,0.01,0.16,0.01,0.24,0 c2.728-0.65,5.509-1.045,8.31-1.18c0.552-0.024,0.98-0.49,0.956-1.042c-0.001-0.026-0.003-0.052-0.006-0.078 c-0.032-0.549-0.501-0.968-1.05-0.94c-2.929,0.143-5.838,0.558-8.69,1.24c-0.552,0.066-0.946,0.568-0.88,1.12 S13.628,13.366,14.18,13.3z M26,44c-0.552,0-1,0.448-1,1v2c0,0.552,0.448,1,1,1s1-0.448,1-1v-2C27,44.448,26.552,44,26,44z M31,43.8 c-0.552,0-1,0.448-1,1v2c0,0.552,0.448,1,1,1s1-0.448,1-1v-2C32,44.248,31.552,43.8,31,43.8z M36,43.1c-0.552,0-1,0.448-1,1v2 c0,0.552,0.448,1,1,1s1-0.448,1-1v-2C37,43.548,36.552,43.1,36,43.1z M41,42c-0.552,0-1,0.448-1,1v2c0,0.552,0.448,1,1,1 s1-0.448,1-1v-2C42,42.448,41.552,42,41,42z M63,8h-7V1c0-0.552-0.448-1-1-1h-8c-0.552,0-1,0.448-1,1v7h-4.888 C36.88,6.738,31.684,6,26,6C11.42,6,0,10.83,0,17v30c0,6.17,11.42,11,26,11s26-4.83,26-11V26h3c0.552,0,1-0.448,1-1v-7h7 c0.552,0,1-0.448,1-1V9C64,8.448,63.552,8,63,8z M26,8c4.531,0,8.57,0.472,12,1.244V17c0,0.552,0.448,1,1,1h7v3.845 C41.898,24.225,34.863,26,26,26c-14.36,0-24-4.65-24-9C2,12.65,11.64,8,26,8z M50,37c0,1.73-1.53,3.52-4.32,5 c-0.486,0.276-0.656,0.894-0.38,1.38c0.276,0.486,0.894,0.656,1.38,0.38c1.219-0.64,2.337-1.456,3.32-2.42V47c0,4.35-9.64,9-24,9 S2,51.35,2,47v-5.71c3.21,3.3,10.08,5.78,18.86,6.5h0.08c0.552,0.022,1.018-0.408,1.04-0.96c0.022-0.552-0.408-1.018-0.96-1.04 C10.18,44.91,2,41.12,2,37v-5.69c3.89,4,13.05,6.69,24,6.69s20.11-2.72,24-6.69V37z M50,27c0,4.35-9.64,9-24,9S2,31.35,2,27v-5.69 c3.89,4,13.05,6.69,24,6.69c8.14,0,15.271-1.51,20-3.913V25c0,0.552,0.448,1,1,1h3V27z M62,16h-7c-0.552,0-1,0.448-1,1v7h-6v-7 c0-0.552-0.448-1-1-1h-7v-6h7c0.552,0,1-0.448,1-1V2h6v7c0,0.552,0.448,1,1,1h7V16z"/>
</svg>
