<svg xmlns="http://www.w3.org/2000/svg" xmlns:xlink="http://www.w3.org/1999/xlink" version="1.1" width="94.667" height="94.667" style="" xml:space="preserve"><rect id="backgroundrect" width="100%" height="100%" x="0" y="0" fill="none" stroke="none"/>
















<g class="currentLayer" style=""><title>Layer 1</title><g id="svg_1" class="" fill="#2cc1b7" fill-opacity="1">
	<g id="svg_2" fill="#2cc1b7" fill-opacity="1">
		<path d="M74.31479526311159,17.09364071816796 h8.427627637982368 V84.87381821793907 h-8.427627637982368 V17.09364071816796 zM57.53348236531019,19.546862121528328 l-1.1668467968702316,0.3672979531288147 c-1.4608128368854523,0.4678023681640625 -3.1777187883853912,-0.18364897656440735 -3.7683560773730282,-1.4235079874992371 c-0.28314520418643957,-0.6002854607105259 -0.2966712489724161,-1.263614599943161 -0.036971189081668875,-1.8702957961559297 c0.3011799305677416,-0.701703552246094 0.941412717103958,-1.2508231289386749 1.7538771405816078,-1.5075662255287177 l13.157234631478786,-4.152659693956375 l1.601483702659607,11.878708180665969 c0.09017363190650945,0.6048538432121281 -0.07754932343959811,1.2224991574287416 -0.4734115675091744,1.734157997608185 c-0.48423240333795564,0.6286094322204595 -1.2624308466911316,1.0361091513633727 -2.1353116035461426,1.1201673893928528 c-0.10460141301155094,0.01096411800384522 -0.22182713449001323,0.01644617700576783 -0.3345441743731501,0.01644617700576783 c-1.4887666627764704,0 -2.753000982105732,-0.9611876783370972 -2.9405621364712715,-2.233025366783142 l-0.20289067178964618,-1.797201676130295 C47.7812040746212,43.012815679258054 12.765881069004536,65.87757009977693 11.246455371379852,66.86251336712235 c-0.5157931745052339,0.3344055991172792 -1.132580816745758,0.5125725166797639 -1.785437911748886,0.5125725166797639 c-0.8800946474075318,0 -1.7078885883092882,-0.32892354011535657 -2.2696703150868416,-0.9054534118175507 c-0.5166949108242991,-0.527191340684891 -0.7583602443337444,-1.1996572449207308 -0.6835161298513414,-1.8903966791629792 c0.0784510597586632,-0.7172360527515411 0.5031688660383224,-1.376910485982895 1.1668467968702316,-1.8045110881328583 C8.030863657593727,62.54265087360734 42.71254422515631,39.825912046140374 57.53348236531019,19.546862121528328 zM67.50307910889387,32.14828841394777 v52.72370245099068 h-8.425824165344238 V32.14828841394777 H67.50307910889387 zM52.76780591905117,47.815099364942256 v37.058718852996826 h-8.428529374301434 V47.815099364942256 H52.76780591905117 zM37.52756039053202,64.09041886515016 v20.780658323287962 h-8.426725901663303 V64.09041886515016 H37.52756039053202 zM21.416237577795982,72.23219015950555 v12.639800705432892 h-8.425824165344238 V72.23219015950555 H21.416237577795982 zM85.36377038061619,93.00919377679223 H0 V86.67376092357033 h85.36467211693525 L85.36377038061619,93.00919377679223 L85.36377038061619,93.00919377679223 z" id="svg_3" fill="#2cc1b7" fill-opacity="1"/>
	</g>
</g><g id="svg_4">
</g><g id="svg_5">
</g><g id="svg_6">
</g><g id="svg_7">
</g><g id="svg_8">
</g><g id="svg_9">
</g><g id="svg_10">
</g><g id="svg_11">
</g><g id="svg_12">
</g><g id="svg_13">
</g><g id="svg_14">
</g><g id="svg_15">
</g><g id="svg_16">
</g><g id="svg_17">
</g><g id="svg_18">
</g></g></svg>